<svg width="67" height="67" viewBox="0 0 67 67" fill="none" xmlns="http://www.w3.org/2000/svg">
<path d="M17.6042 55.4844H20.0843C20.5177 56.6998 21.6693 57.5781 23.0323 57.5781C24.7638 57.5781 26.1729 56.169 26.1729 54.4375C26.1729 52.706 24.7638 51.2969 23.0323 51.2969C21.6693 51.2969 20.5177 52.1752 20.0843 53.3906H17.6042C17.1708 52.1752 16.0193 51.2969 14.6562 51.2969C12.9247 51.2969 11.5156 52.706 11.5156 54.4375C11.5156 56.169 12.9247 57.5781 14.6562 57.5781C16.0193 57.5781 17.1708 56.6998 17.6042 55.4844ZM23.0312 53.3906C23.6081 53.3906 24.0781 53.8596 24.0781 54.4375C24.0781 55.0154 23.6081 55.4844 23.0312 55.4844C22.4544 55.4844 21.9844 55.0154 21.9844 54.4375C21.9844 53.8596 22.4544 53.3906 23.0312 53.3906ZM13.6094 54.4375C13.6094 53.8596 14.0794 53.3906 14.6562 53.3906C15.2331 53.3906 15.7031 53.8596 15.7031 54.4375C15.7031 55.0154 15.2331 55.4844 14.6562 55.4844C14.0794 55.4844 13.6094 55.0154 13.6094 54.4375Z" fill="white"/>
<path d="M53.5832 51.2969C54.0167 52.5123 55.1682 53.3906 56.5312 53.3906C58.2628 53.3906 59.6719 51.9815 59.6719 50.25C59.6719 48.5185 58.2628 47.1094 56.5312 47.1094C55.1682 47.1094 54.0167 47.9877 53.5832 49.2031H47.1094C46.5315 49.2031 46.0625 49.6711 46.0625 50.25V55.677C44.8471 56.1104 43.9688 57.262 43.9688 58.625C43.9688 60.3565 45.3778 61.7656 47.1094 61.7656C48.8409 61.7656 50.25 60.3565 50.25 58.625C50.25 57.262 49.3717 56.1104 48.1562 55.677V51.2969H53.5832ZM56.5312 49.2031C57.1081 49.2031 57.5781 49.6721 57.5781 50.25C57.5781 50.8279 57.1081 51.2969 56.5312 51.2969C55.9544 51.2969 55.4844 50.8279 55.4844 50.25C55.4844 49.6721 55.9544 49.2031 56.5312 49.2031ZM47.1094 59.6719C46.5325 59.6719 46.0625 59.2029 46.0625 58.625C46.0625 58.0471 46.5325 57.5781 47.1094 57.5781C47.6862 57.5781 48.1562 58.0471 48.1562 58.625C48.1562 59.2029 47.6862 59.6719 47.1094 59.6719Z" fill="white"/>
<path d="M33.5 2.09375C16.1826 2.09375 2.09375 16.1826 2.09375 33.5C2.09375 34.0789 2.56275 34.5469 3.14062 34.5469H17.7969V37.8801C16.9102 38.1963 16.2119 38.8945 15.8958 39.7812H10.9022L8.06827 36.9474C7.8725 36.7505 7.60555 36.6406 7.32812 36.6406H3.14062V38.7344H6.89472L9.72861 41.5683C9.92438 41.7651 10.1913 41.875 10.4688 41.875H15.8958C16.2119 42.7617 16.9102 43.46 17.7969 43.7761V46.0625H11.323C10.8896 44.8471 9.73803 43.9688 8.375 43.9688C6.64347 43.9688 5.23438 45.3778 5.23438 47.1094C5.23438 48.8409 6.64347 50.25 8.375 50.25C9.73803 50.25 10.8896 49.3717 11.323 48.1562H18.8438C19.4216 48.1562 19.8906 47.6883 19.8906 47.1094V43.7761C21.106 43.3427 21.9844 42.1912 21.9844 40.8281C21.9844 39.4651 21.106 38.3135 19.8906 37.8801V34.5469H24.0781V46.0625C24.0781 46.341 24.188 46.6069 24.3849 46.8026L28.2656 50.6834V58.8176C27.0502 59.251 26.1719 60.4026 26.1719 61.7656C26.1719 63.4972 27.581 64.9062 29.3125 64.9062C31.044 64.9062 32.4531 63.4972 32.4531 61.7656C32.4531 60.4026 31.5748 59.251 30.3594 58.8176V50.6834L32.1464 48.8964C32.3432 48.7006 32.4531 48.4347 32.4531 48.1562V42.7293C33.6685 42.2958 34.5469 41.1443 34.5469 39.7812C34.5469 38.4182 33.6685 37.2667 32.4531 36.8332V34.5469H42.4885L40.088 36.9474C39.8912 37.1431 39.7812 37.409 39.7812 37.6875V39.9739C38.5658 40.4073 37.6875 41.5588 37.6875 42.9219C37.6875 44.2849 38.5658 45.4365 39.7812 45.8699V48.7697L37.9942 50.5567C37.7974 50.7525 37.6875 51.0184 37.6875 51.2969V57.7707C36.4721 58.2042 35.5938 59.3557 35.5938 60.7188C35.5938 62.4503 37.0028 63.8594 38.7344 63.8594C40.4659 63.8594 41.875 62.4503 41.875 60.7188C41.875 59.3557 40.9967 58.2042 39.7812 57.7707V51.7303L41.5683 49.9433C41.7651 49.7475 41.875 49.4816 41.875 49.2031V45.8699C42.7617 45.5537 43.46 44.8555 43.7761 43.9688H49.2031C49.4805 43.9688 49.7475 43.8588 49.9433 43.662L52.7772 40.8281H57.7707C58.2042 42.0435 59.3557 42.9219 60.7188 42.9219C62.4503 42.9219 63.8594 41.5128 63.8594 39.7812C63.8594 38.4182 62.981 37.2667 61.7656 36.8332V34.5469H63.8594C64.4372 34.5469 64.9062 34.0789 64.9062 33.5C64.9062 16.1826 50.8174 2.09375 33.5 2.09375ZM8.375 48.1562C7.79817 48.1562 7.32812 47.6872 7.32812 47.1094C7.32812 46.5315 7.79817 46.0625 8.375 46.0625C8.95183 46.0625 9.42188 46.5315 9.42188 47.1094C9.42188 47.6872 8.95183 48.1562 8.375 48.1562ZM18.8438 41.875C18.2669 41.875 17.7969 41.406 17.7969 40.8281C17.7969 40.2503 18.2669 39.7812 18.8438 39.7812C19.4206 39.7812 19.8906 40.2503 19.8906 40.8281C19.8906 41.406 19.4206 41.875 18.8438 41.875ZM38.7344 61.7656C38.1575 61.7656 37.6875 61.2966 37.6875 60.7188C37.6875 60.1409 38.1575 59.6719 38.7344 59.6719C39.3112 59.6719 39.7812 60.1409 39.7812 60.7188C39.7812 61.2966 39.3112 61.7656 38.7344 61.7656ZM58.8836 18.8563C57.2379 19.5075 55.4446 20.0885 53.5351 20.5973C52.6327 17.7466 51.4413 15.1232 50.0134 12.8012C51.1545 12.5112 52.2213 12.1877 53.2168 11.837C55.4456 13.868 57.3635 16.2318 58.8836 18.8563ZM42.9145 32.4531C42.8884 29.8454 42.7669 27.2229 42.5513 24.6675C45.894 24.3283 49.1079 23.8038 52.0956 23.1119C52.8494 26.0326 53.2933 29.1743 53.3718 32.4531H42.9145ZM38.413 12.4034C36.8071 12.5028 35.1677 12.5625 33.5 12.5625C31.8323 12.5625 30.1929 12.5028 28.587 12.4034C30.0516 7.11561 31.9339 4.1875 33.5 4.1875C35.0661 4.1875 36.9484 7.11561 38.413 12.4034ZM37.498 4.78317C40.9213 5.81644 44.0242 8.15725 46.564 11.4245C44.6806 11.7794 42.6539 12.0474 40.5444 12.239C39.73 9.15283 38.7124 6.57019 37.498 4.78317V4.78317ZM38.9354 14.471C39.4871 16.8672 39.955 19.6425 40.2869 22.7685C38.0633 22.9391 35.7927 23.0312 33.5 23.0312C31.2073 23.0312 28.9367 22.9391 26.7142 22.7685C27.046 19.6425 27.514 16.8672 28.0657 14.471C29.8391 14.5903 31.6565 14.6562 33.5 14.6562C35.3435 14.6562 37.1609 14.5903 38.9354 14.471V14.471ZM26.4556 12.238C24.3461 12.0464 22.3194 11.7784 20.436 11.4235C22.9758 8.15516 26.0777 5.81539 29.502 4.78212C28.2876 6.57019 27.27 9.15283 26.4556 12.238ZM25.9594 14.294C25.3972 16.84 24.9596 19.6498 24.6476 22.5853C21.4348 22.2597 18.3496 21.7593 15.4833 21.0998C16.4035 18.2062 17.6367 15.5723 19.1159 13.2869C21.2411 13.7266 23.5411 14.0637 25.9594 14.294V14.294ZM24.4477 24.6675C24.232 27.2229 24.1106 29.8454 24.0844 32.4531H13.6261C13.7046 29.1754 14.1485 26.0326 14.9023 23.1119C17.8911 23.8049 21.105 24.3283 24.4477 24.6675ZM26.5194 24.8518C28.8079 25.0297 31.1435 25.125 33.5 25.125C35.8565 25.125 38.1921 25.0297 40.4806 24.8518C40.6763 27.2146 40.7957 29.7522 40.8198 32.4531H26.1792C26.2043 29.7532 26.3237 27.2146 26.5194 24.8518V24.8518ZM42.3534 22.5853C42.0415 19.6498 41.6039 16.84 41.0417 14.294C43.4589 14.0637 45.76 13.7266 47.8851 13.288C49.3643 15.5744 50.5976 18.2083 51.5178 21.1008C48.6514 21.7593 45.5663 22.2597 42.3534 22.5853ZM51.3377 10.2646C50.5306 10.5138 49.6753 10.743 48.7812 10.9545C47.4999 9.18109 46.0688 7.63067 44.5173 6.34092C46.9754 7.34069 49.2649 8.66813 51.3377 10.2646V10.2646ZM18.2177 10.9535C17.3237 10.742 16.4694 10.5127 15.6613 10.2636C17.7351 8.66812 20.0236 7.33964 22.4816 6.33988C20.9302 7.62963 19.4991 9.18109 18.2177 10.9535ZM13.7832 11.8381C14.7787 12.1888 15.8445 12.5123 16.9866 12.8022C15.5587 15.1242 14.3673 17.7477 13.4649 20.5983C11.5565 20.0895 9.76211 19.5085 8.11642 18.8574C9.63648 16.2318 11.5544 13.868 13.7832 11.8381V11.8381ZM7.13341 20.7166C8.89739 21.4264 10.8247 22.0577 12.8807 22.6073C12.0799 25.6914 11.613 29.0037 11.5334 32.4542H4.2053C4.35395 28.2572 5.39559 24.2875 7.13341 20.7166ZM29.3125 62.8125C28.7357 62.8125 28.2656 62.3435 28.2656 61.7656C28.2656 61.1878 28.7357 60.7188 29.3125 60.7188C29.8893 60.7188 30.3594 61.1878 30.3594 61.7656C30.3594 62.3435 29.8893 62.8125 29.3125 62.8125ZM31.4062 40.8281C30.8294 40.8281 30.3594 40.3591 30.3594 39.7812C30.3594 39.2034 30.8294 38.7344 31.4062 38.7344C31.9831 38.7344 32.4531 39.2034 32.4531 39.7812C32.4531 40.3591 31.9831 40.8281 31.4062 40.8281ZM30.3594 36.8332C29.144 37.2667 28.2656 38.4182 28.2656 39.7812C28.2656 41.1443 29.144 42.2958 30.3594 42.7293V47.7228L29.3125 48.7697L26.1719 45.6291V34.5469H30.3594V36.8332ZM40.8281 43.9688C40.2513 43.9688 39.7812 43.4997 39.7812 42.9219C39.7812 42.344 40.2513 41.875 40.8281 41.875C41.405 41.875 41.875 42.344 41.875 42.9219C41.875 43.4997 41.405 43.9688 40.8281 43.9688ZM60.7188 40.8281C60.1419 40.8281 59.6719 40.3591 59.6719 39.7812C59.6719 39.2034 60.1419 38.7344 60.7188 38.7344C61.2956 38.7344 61.7656 39.2034 61.7656 39.7812C61.7656 40.3591 61.2956 40.8281 60.7188 40.8281ZM59.6719 36.8332C58.7852 37.1494 58.0869 37.8477 57.7707 38.7344H52.3438C52.0663 38.7344 51.7994 38.8443 51.6036 39.0411L48.7697 41.875H43.7761C43.46 40.9883 42.7617 40.29 41.875 39.9739V38.1209L45.449 34.5469H59.6719V36.8332ZM55.4655 32.4531C55.386 29.0026 54.9191 25.6903 54.1182 22.6062C56.1743 22.0577 58.1016 21.4253 59.8655 20.7156C61.6044 24.2875 62.646 28.2573 62.7937 32.4531H55.4655Z" fill="white"/>
</svg>
