<svg width="63" height="56" viewBox="0 0 63 56" fill="none" xmlns="http://www.w3.org/2000/svg">
<path d="M31.5 5.84718L36.9263 0.794164C37.7754 0.113086 38.772 -0.156523 39.9164 0.0895156C40.95 0.335555 41.7498 1.05863 42.0082 1.97968L43.9646 8.81562L51.5935 6.89827C52.6271 6.64015 53.7345 6.89609 54.4851 7.56765C55.1373 8.24031 55.531 9.22359 55.2357 10.138L53.0824 16.9203L60.7728 18.6594C61.8064 18.8891 62.6185 19.6 62.9015 20.5187C63.1722 21.4375 62.7662 22.3234 62.1017 23.0781L56.417 28L62.1017 32.8234C62.7662 33.5781 63.1722 34.4641 62.9015 35.4812C62.6185 36.4 61.8064 37.1109 60.7728 37.3406L53.0824 39.0797L55.2357 45.8609C55.531 46.7797 55.1373 47.7641 54.4851 48.4313C53.7345 49.0109 52.6271 49.3609 51.5935 49.0984L43.9646 47.1844L42.0082 54.0203C41.7498 54.9391 40.95 55.6609 39.9164 55.9125C38.772 56.1531 37.7754 55.7922 36.9263 55.2016L31.5 50.1484L25.9629 55.2016C25.1138 55.7922 24.1172 56.1531 23.0836 55.9125C22.05 55.6609 21.2502 54.9391 20.9918 54.0203L19.0353 47.1844L11.4052 49.0984C10.3765 49.3609 9.27034 49.0109 8.5136 48.4313C7.75809 47.7641 7.47016 46.7797 7.76055 45.8609L9.91756 39.0797L2.22713 37.3406C1.19096 37.1109 0.377494 36.4 0.100712 35.4812C-0.176094 34.4641 0.127216 33.5781 0.893429 32.8234L6.57807 28L0.893429 23.0781C0.127216 22.3234 -0.176094 21.4375 0.100712 20.5187C0.377494 19.6 1.19096 18.8891 2.22713 18.6594L9.91756 16.9203L7.76055 10.138C7.47016 9.22359 7.75809 8.24031 8.5136 7.56765C9.27034 6.89609 10.3765 6.64015 11.4052 6.89827L19.0353 8.81562L20.9918 1.97968C21.2502 1.05863 22.05 0.335555 23.0836 0.0895156C24.1172 -0.156523 25.1138 0.113086 25.9629 0.794164L31.5 5.84718Z" fill="white"/>
</svg>
