<svg width="63" height="56" viewBox="0 0 63 56" fill="none" xmlns="http://www.w3.org/2000/svg">
<path d="M55.727 0.00255937C55.0549 0.00255937 54.3566 0.149559 53.6883 0.464888C48.8637 2.74645 45.2872 3.52082 42.3023 3.52082C35.9706 3.52082 32.2913 0.0361375 24.9992 0.0350437C21.3286 0.0350328 16.7677 0.910438 10.5005 3.54156V3.5C10.5005 1.55859 8.94188 0 7.00047 0C5.05906 0 3.50047 1.55859 3.50047 3.5L3.49609 54.25C3.49609 55.207 4.28906 56 5.24609 56H8.75047C9.7075 56 10.5005 55.2125 10.5005 54.25V42C16.1595 39.3903 20.6406 38.5197 24.5333 38.5197C32.3087 38.5197 37.7239 41.9956 45.5005 41.9956C48.8703 41.9956 52.6831 41.3428 57.3239 39.4702C58.6583 38.9266 59.5005 37.6688 59.5005 36.3234V3.36219C59.5005 1.31359 57.7286 0.00255937 55.727 0.00255937ZM52.5005 15.5094C49.0016 17.045 46.1775 17.7614 43.7505 17.9692V26.7422C46.533 26.5806 49.3931 25.9817 52.5005 24.8456V33.7859C50.0034 34.5998 47.6956 34.9978 45.4972 34.9978C44.9014 34.9978 44.3258 34.9512 43.7505 34.9004V26.7422C43.2653 26.7704 42.7778 26.8135 42.2969 26.8135C39.4728 26.8135 37.118 26.3162 35.0005 25.711V33.0293C32.3963 32.367 29.5131 31.7813 26.2505 31.6096V23.3078C25.8348 23.3734 25.4302 23.3297 24.9927 23.3297C22.838 23.3297 20.2458 23.8109 17.5005 24.6203V32.1781C15.2255 32.7469 12.8958 33.4469 10.5005 34.3875V27.4203L13.2097 26.2839C14.7442 25.6484 16.1442 25.1453 17.5005 24.6203V15.6844C15.4114 16.2422 13.1364 16.975 10.5005 18.0797V11.1344L13.2097 9.99797C14.7442 9.35375 16.1442 8.85609 17.5005 8.42406V15.6877C20.3869 14.9272 22.8697 14.5753 24.9905 14.5764C25.4358 14.5764 25.83 14.6251 26.2505 14.6495V7.11266C28.2848 7.28437 30.013 7.82578 32.0692 8.51266C32.9989 8.81891 33.9833 9.12734 35.0005 9.41938V16.6458C37.2744 17.3939 39.5341 18.0633 42.2969 18.0633C42.757 18.0633 43.2573 18.0112 43.7505 17.9693V10.4497C46.533 10.2881 49.3931 9.6892 52.5005 8.55312V15.5094ZM26.2505 14.6453V23.3997C28.2859 23.5714 30.0097 24.1131 32.0725 24.7997C32.9989 25.1125 33.9833 25.4188 35.0005 25.7141V16.6469C32.3864 15.7828 29.7067 14.8531 26.2505 14.6453Z" fill="white"/>
</svg>
