<svg width="40" height="64" viewBox="0 0 40 64" fill="none" xmlns="http://www.w3.org/2000/svg">
<path d="M34 56H6C2.68625 56 0 58.6875 0 62C0 63.1 0.8955 64 2 64H38C39.1045 64 40 63.1045 40 62C40 58.6875 37.3125 56 34 56ZM1 35.9875C1 42.4412 3.765 45.2225 8 46.5662V52H32V46.5625C36.235 45.2188 39 42.4375 39 35.9837C39 32.1562 37.6562 27.5925 35.6562 23.1712L23.125 35.7C22.9294 35.8956 22.674 35.9936 22.4186 35.9936C22.1641 35.9936 21.9097 35.8963 21.7149 35.7012L20.2961 34.2925C20.1011 34.0975 20.0037 33.8405 20.0037 33.5835C20.0037 33.3256 20.1017 33.0675 20.2974 32.8719L33.7849 19.3844C31.1875 14.6625 27.975 10.375 24.925 7.8125C26.675 7.39125 28 5.875 28 4C28 1.7975 26.2025 0 24 0H16C13.8 0 12 1.7975 12 4C12 5.875 13.3275 7.39 15.0775 7.8125C8.46875 13.35 1 26.8125 1 35.9875Z" fill="white"/>
</svg>
