<svg width="64" height="64" viewBox="0 0 64 64" fill="none" xmlns="http://www.w3.org/2000/svg">
<path d="M63 32C63 29.427 61.038 27.325 58.535 27.054C57.85 23.369 56.386 19.835 54.26 16.737C54.976 15.851 55.385 14.77 55.385 13.615C55.385 12.279 54.865 11.024 53.921 10.08C52.101 8.26 49.227 8.162 47.265 9.741C44.166 7.614 40.632 6.149 36.947 5.464C36.674 2.962 34.573 1 32 1C29.427 1 27.326 2.962 27.054 5.465C23.369 6.15 19.835 7.615 16.736 9.742C14.775 8.162 11.9 8.26 10.08 10.08C9.136 11.024 8.616 12.279 8.616 13.615C8.616 14.77 9.025 15.852 9.741 16.737C7.615 19.835 6.151 23.368 5.466 27.054C2.962 27.325 1 29.426 1 32C1 34.574 2.962 36.675 5.465 36.946C6.15 40.631 7.614 44.165 9.74 47.263C9.024 48.149 8.615 49.23 8.615 50.385C8.615 51.721 9.135 52.976 10.079 53.92C11.054 54.895 12.334 55.382 13.615 55.382C14.726 55.382 15.824 54.993 16.735 54.259C19.833 56.385 23.368 57.85 27.054 58.535C27.325 61.038 29.426 63 32 63C34.573 63 36.674 61.038 36.946 58.535C40.632 57.85 44.166 56.385 47.265 54.259C48.176 54.992 49.274 55.382 50.385 55.382C51.665 55.382 52.946 54.895 53.921 53.92C54.865 52.976 55.385 51.721 55.385 50.385C55.385 49.23 54.976 48.148 54.26 47.263C56.386 44.165 57.85 40.631 58.535 36.946C61.038 36.675 63 34.574 63 32V32ZM47.253 46.52L42.367 42.385C42.758 41.673 43 40.868 43 40C43 39.696 42.962 39.402 42.91 39.114L53.829 34.746C54.461 35.703 55.419 36.411 56.537 36.756C55.901 40.046 54.593 43.202 52.711 45.986C50.973 45.07 48.825 45.247 47.253 46.52V46.52ZM17.151 46.85C16.895 46.594 16.617 46.377 16.325 46.188L20.408 33.94C20.604 33.964 20.797 34 21 34C22.396 34 23.656 33.422 24.564 32.497L33.353 38.184C33.132 38.749 33 39.358 33 40C33 40.363 33.043 40.715 33.117 41.056L17.861 47.768C17.659 47.441 17.43 47.129 17.151 46.85V46.85ZM11.288 45.987C9.406 43.203 8.098 40.047 7.462 36.757C9.496 36.129 10.988 34.257 10.997 32.021L16.392 30.942C16.817 31.947 17.573 32.767 18.509 33.31L14.456 45.469C13.383 45.286 12.272 45.468 11.288 45.987ZM13.615 18.612C14.067 18.612 14.514 18.529 14.953 18.407L18.03 25C16.81 25.908 16.009 27.347 16.002 28.979L10.607 30.058C10.036 28.707 8.877 27.68 7.463 27.243C8.099 23.952 9.407 20.796 11.288 18.013C12.016 18.397 12.811 18.612 13.615 18.612V18.612ZM17.151 17.15C17.375 16.926 17.572 16.682 17.747 16.426L31.074 21.272C31.038 21.512 31 21.751 31 22C31 22.401 31.06 22.786 31.149 23.16L24.999 26.031C24.087 24.805 22.641 24 21 24C20.599 24 20.214 24.06 19.84 24.149L16.733 17.491C16.873 17.379 17.021 17.28 17.151 17.15V17.15ZM46.849 17.15C47.824 18.125 49.104 18.612 50.385 18.612C51.189 18.612 51.984 18.397 52.712 18.013C54.593 20.796 55.902 23.953 56.538 27.243C55.495 27.565 54.598 28.206 53.969 29.069L40.866 23.113C40.947 22.754 41 22.384 41 22C41 21.455 40.891 20.941 40.729 20.449L46.738 17.015C46.778 17.058 46.807 17.109 46.849 17.15V17.15ZM38.455 35.046L37.532 26.735C38.545 26.406 39.416 25.775 40.031 24.931L53.135 30.887C53.053 31.246 53 31.616 53 32C53 32.304 53.038 32.598 53.09 32.887L42.171 37.254C41.356 36.02 40.005 35.189 38.455 35.046ZM35.545 26.954L36.468 35.265C35.693 35.517 34.994 35.934 34.437 36.502L25.647 30.814C25.868 30.251 26 29.642 26 29C26 28.599 25.94 28.214 25.851 27.84L32 24.97C32.826 26.078 34.094 26.82 35.545 26.954V26.954ZM36.756 7.463C40.045 8.099 43.2 9.407 45.984 11.287C45.606 11.999 45.384 12.786 45.384 13.615C45.384 14.203 45.501 14.77 45.695 15.308L39.737 18.713C38.82 17.671 37.493 17 36 17C35.927 17 35.859 17.018 35.786 17.022L34.154 10.493C35.398 9.893 36.344 8.799 36.756 7.463V7.463ZM32 11C32.073 11 32.141 10.982 32.214 10.978L33.846 17.507C32.98 17.924 32.256 18.578 31.754 19.392L18.521 14.58C18.582 14.265 18.615 13.943 18.615 13.615C18.615 12.786 18.393 11.999 18.015 11.287C20.799 9.406 23.954 8.099 27.243 7.463C27.874 9.503 29.755 11 32 11V11ZM27.244 56.537C23.954 55.901 20.799 54.593 18.016 52.713C18.394 52.001 18.616 51.214 18.616 50.385C18.616 50.136 18.58 49.895 18.545 49.653L33.93 42.883C34.346 43.468 34.887 43.948 35.51 44.309L32.593 53.059C32.396 53.036 32.203 53 32 53C29.755 53 27.874 54.497 27.244 56.537V56.537ZM34.491 53.69L37.408 44.94C37.604 44.964 37.797 45 38 45C39.165 45 40.224 44.583 41.075 43.913L45.981 48.064C45.606 48.774 45.385 49.559 45.385 50.385C45.385 51.214 45.607 52.002 45.985 52.714C43.202 54.594 40.047 55.902 36.757 56.538C36.382 55.325 35.569 54.316 34.491 53.69V53.69Z" fill="white"/>
</svg>
