<svg width="70" height="70" viewBox="0 0 70 70" fill="none" xmlns="http://www.w3.org/2000/svg">
<g clip-path="url(#clip0_36_31)">
<path d="M69.0034 18.3816C69.0033 18.3816 69.0033 18.3816 69.0031 18.3816L69.0008 18.3793L64.4825 17.7346C63.8475 17.6442 63.4059 17.056 63.4964 16.4209C63.5398 16.1158 63.7029 15.8405 63.9494 15.6555L67.6012 12.9167C68.1144 12.5318 68.2184 11.8038 67.8335 11.2905L63.652 5.71529C63.2671 5.20204 62.5392 5.09809 62.0259 5.48299L58.3753 8.22183C57.8642 8.60963 57.1357 8.50974 56.7479 7.99868C56.5596 7.75055 56.4788 7.43709 56.5238 7.12885L57.1696 2.61057C57.2607 1.97551 56.8197 1.38706 56.1848 1.29588C56.1844 1.29588 56.184 1.29573 56.1835 1.29573L49.2888 0.310771C48.6539 0.219592 48.0651 0.660386 47.974 1.29544C47.974 1.29559 47.974 1.29559 47.974 1.29573L47.3282 5.81402C47.2377 6.44907 46.6495 6.89059 46.0145 6.80014C45.7093 6.75673 45.434 6.59368 45.249 6.34715L42.5114 2.69536C42.1265 2.18211 41.3985 2.07816 40.8852 2.46305L37.3949 5.08226C35.8158 4.91443 34.2234 4.91443 32.6443 5.08226C22.3031 6.26425 14.1935 14.5113 13.1855 24.871C13.1541 25.1997 13.1425 25.526 13.1263 25.8524H12.7778C12.2267 25.8534 11.752 26.2417 11.6418 26.7816L10.8392 30.5984L7.62417 28.381C7.16276 28.0626 6.53961 28.1194 6.14324 28.5158L2.6587 32.0003C2.26292 32.3965 2.2063 33.0188 2.52397 33.4801L4.73084 36.6893L0.912951 37.4919C0.378946 37.609 -0.00115886 38.0824 2.65468e-06 38.6291V43.2751C-0.000287723 43.8245 0.384608 44.299 0.922243 44.4122L4.74013 45.2148L2.53326 48.4241C2.21559 48.8854 2.27221 49.5076 2.668 49.9039L6.15253 53.3884C6.5489 53.7848 7.17205 53.8415 7.63346 53.5231L10.8427 51.3105L11.6453 55.1284C11.7555 55.6683 12.2301 56.0565 12.7813 56.0576H17.4273C17.9767 56.0579 18.4512 55.673 18.5645 55.1353L19.3671 51.3174L22.5763 53.5243C23.0376 53.842 23.6599 53.7854 24.0561 53.3896L25.8599 51.5799V54.8902C25.8651 56.5426 26.7504 58.067 28.1829 58.8905V65.3439C28.1829 67.9098 30.2631 69.9899 32.829 69.9899H37.475C40.041 69.9899 42.1211 67.9098 42.1211 65.3439V58.8905C43.5537 58.067 44.4389 56.5426 44.4441 54.8902V50.293C44.4756 48.3586 45.4876 46.5728 47.1307 45.5517C48.0946 44.9264 49.0087 44.2273 49.8649 43.461L48.3154 41.7303C47.5496 42.4168 46.7313 43.0424 45.8681 43.6015C43.5618 45.049 42.15 47.5701 42.1211 50.293V54.8902C42.1211 56.1733 41.0811 57.2133 39.7981 57.2133H30.506C29.2229 57.2133 28.1829 56.1733 28.1829 54.8902V50.1966C28.1561 47.5252 26.7665 45.0528 24.4986 43.641C15.2926 37.8564 12.5189 25.7042 18.3035 16.4982C21.8926 10.7863 28.1564 7.30975 34.9023 7.28565C34.885 7.32703 34.8698 7.36928 34.857 7.41226C34.8139 7.71716 34.8937 8.02684 35.0788 8.27294L37.8165 11.9236C38.1052 12.2971 38.1329 12.8102 37.8862 13.2129C37.6487 13.6179 37.1895 13.8389 36.7247 13.7715L32.2064 13.1257C31.5714 13.0347 30.9829 13.4756 30.8917 14.1106C30.8917 14.111 30.8916 14.1114 30.8916 14.1119L29.9055 21.0101C29.8144 21.645 30.2554 22.2336 30.8903 22.3248C30.8907 22.3248 30.8912 22.3249 30.8916 22.3249L35.4099 22.9707C36.0449 23.0612 36.4864 23.6493 36.396 24.2844C36.3526 24.5896 36.1895 24.8649 35.943 25.0498L32.2924 27.7875C31.7791 28.1724 31.6752 28.9004 32.0601 29.4136L36.2415 34.9889C36.6264 35.5021 37.3544 35.6061 37.8676 35.2212L41.5194 32.4835C42.0331 32.0993 42.7611 32.2043 43.1453 32.7181C43.3291 32.9639 43.4082 33.2726 43.3651 33.5765L42.7204 38.0948C42.6292 38.7297 43.07 39.3184 43.7051 39.4096C43.7052 39.4096 43.7052 39.4096 43.7054 39.4096L50.6048 40.3957C50.6591 40.4027 50.7138 40.4062 50.7685 40.4062C51.3468 40.4069 51.8374 39.9821 51.9196 39.4096L52.5642 34.8913C52.6547 34.2563 53.2429 33.8147 53.8779 33.9052C54.1831 33.9486 54.4584 34.1117 54.6434 34.3582L57.3822 38.0088C57.7671 38.5221 58.4951 38.626 59.0083 38.2411L64.5836 34.0597C65.0968 33.6748 65.2008 32.9468 64.8159 32.4336L62.0782 28.7829C61.7909 28.4088 61.7631 27.8965 62.0085 27.4936C62.241 27.0832 62.7044 26.8608 63.17 26.9361L67.6883 27.5808C68.3232 27.6719 68.912 27.231 69.0031 26.5961C69.0031 26.5959 69.0031 26.5959 69.0031 26.5958L69.9881 19.6964C70.0793 19.0614 69.6385 18.4728 69.0034 18.3816ZM30.506 59.5363H39.7981V61.8593H30.506V59.5363V59.5363ZM30.506 64.1823H39.7981V65.3439C39.7981 66.6269 38.7581 67.6669 37.475 67.6669H32.829C31.546 67.6669 30.506 66.6269 30.506 65.3439V64.1823V64.1823ZM21.2592 44.1521C21.8933 44.6707 22.556 45.1536 23.2442 45.5981C24.3417 46.2917 25.1678 47.341 25.5846 48.5705L23.0932 51.0573L20.6807 49.394C19.6243 48.666 18.1778 48.9323 17.4497 49.9887C17.2752 50.242 17.1526 50.5275 17.0893 50.8284L16.4807 53.7287H13.7198L13.1112 50.8331C12.8469 49.5776 11.615 48.774 10.3595 49.0383C10.0586 49.1016 9.77311 49.2241 9.51976 49.3986L7.10614 51.0573L4.98986 48.9456L6.65198 46.5343C7.38069 45.4784 7.11528 44.0317 6.05932 43.303C5.80582 43.128 5.52009 43.0052 5.21868 42.9418L2.32303 42.332V39.5722L5.21868 38.9624C6.47369 38.6963 7.27543 37.4632 7.00929 36.208C6.94614 35.9103 6.82519 35.6279 6.65315 35.3768L4.98986 32.9586L7.10614 30.8469L9.52092 32.5102C10.5777 33.2375 12.0243 32.9703 12.7515 31.9135C12.9257 31.6604 13.048 31.3753 13.1112 31.0746L13.3144 30.1082C13.5006 31.4466 13.8088 32.7649 14.2355 34.0469C10.4137 34.5025 7.68486 37.9702 8.14046 41.792C8.59607 45.6138 12.0638 48.3427 15.8856 47.8871C18.1862 47.6126 20.2002 46.2129 21.2592 44.1521ZM19.4553 42.5155C18.588 44.9264 15.9306 46.1776 13.5197 45.3104C11.1089 44.443 9.85761 41.7856 10.7248 39.3748C11.3883 37.5304 13.1395 36.302 15.0995 36.306C15.1146 36.306 15.1286 36.306 15.1437 36.306C16.2118 38.6092 17.6705 40.7099 19.4553 42.5155ZM66.8613 25.1137L63.4929 24.6328C61.5877 24.3608 59.8228 25.6847 59.5507 27.5898C59.4201 28.5046 59.6582 29.434 60.2128 30.1733L62.2536 32.8947L58.5367 35.6823L56.4948 32.962C55.3403 31.4223 53.1562 31.11 51.6166 32.2646C50.8773 32.8189 50.3884 33.6443 50.2575 34.5591L49.7871 37.9322L45.1886 37.2747L45.6695 33.9064C45.9423 32.0013 44.6191 30.2358 42.714 29.9632C41.7986 29.8321 40.8688 30.0702 40.1291 30.6251L37.4077 32.6659L34.62 28.949L37.3403 26.9071C38.88 25.7525 39.1923 23.5685 38.0378 22.0289C37.4835 21.2896 36.6581 20.8007 35.7432 20.6698L32.3748 20.1889L33.0323 15.5905L36.4006 16.0713C38.3057 16.3441 40.0712 15.0209 40.3438 13.1159C40.4749 12.2004 40.2368 11.2707 39.6819 10.5309L37.6342 7.80717L41.351 5.01954L43.3929 7.74097C44.5475 9.2807 46.7316 9.593 48.2712 8.43845C49.0105 7.88412 49.4993 7.05872 49.6303 6.14389L50.1111 2.7755L54.7096 3.43175L54.2287 6.80014C53.9566 8.70531 55.2804 10.4702 57.1856 10.7423C58.1004 10.873 59.0298 10.6349 59.7691 10.0803L62.4905 8.03947L65.2782 11.7563L62.5567 13.7983C61.017 14.9528 60.7047 17.1369 61.8592 18.6765C62.4136 19.4158 63.239 19.9046 64.1538 20.0356L67.5222 20.5164L66.8613 25.1137Z" fill="white"/>
<path d="M49.9405 11.0605C44.8087 11.0605 40.6484 15.2208 40.6484 20.3526C40.6484 25.4845 44.8087 29.6447 49.9405 29.6447C55.0724 29.6447 59.2326 25.4845 59.2326 20.3526C59.2268 15.2231 55.0701 11.0662 49.9405 11.0605ZM49.9405 27.3217C46.0916 27.3217 42.9715 24.2016 42.9715 20.3526C42.9715 16.5037 46.0916 13.3836 49.9405 13.3836C53.7895 13.3836 56.9096 16.5037 56.9096 20.3526C56.9051 24.1997 53.7876 27.3172 49.9405 27.3217Z" fill="white"/>
<path d="M36.3074 51.4043H33.9844V54.8888H36.3074V51.4043Z" fill="white"/>
<path d="M30.0655 39.9997C22.8954 37.1987 19.3535 29.1154 22.1546 21.9453C23.2401 19.1669 25.1881 16.8101 27.7123 15.2211L26.4707 13.2559C18.872 18.0429 16.5927 28.0834 21.3797 35.6821C23.2337 38.6249 25.9824 40.8958 29.2223 42.1613C32.0901 43.26 33.9838 46.0128 33.9845 49.0839H36.3075C36.3111 45.0546 33.8281 41.441 30.0655 39.9997Z" fill="white"/>
<path d="M65.3572 43.2734H57.2266V45.5965H65.3572V43.2734Z" fill="white"/>
<path d="M56.8073 49.35L55.3203 51.1348L62.2899 56.9414L63.7768 55.1566L56.8073 49.35Z" fill="white"/>
<path d="M52.573 52.5684H50.25V60.6989H52.573V52.5684Z" fill="white"/>
<path d="M10.479 17.7555L1.1875 20.0781L1.75055 22.3306L11.042 20.0079L10.479 17.7555Z" fill="white"/>
<path d="M4.46665 6.32359L3.11719 8.21289L11.2471 14.0199L12.5966 12.1306L4.46665 6.32359Z" fill="white"/>
<path d="M15.313 0.0105242L13.0625 0.585938L15.4381 9.87732L17.6886 9.30191L15.313 0.0105242Z" fill="white"/>
</g>
<defs>
<clipPath id="clip0_36_31">
<rect width="70" height="70" fill="white"/>
</clipPath>
</defs>
</svg>
