<svg width="39" height="35" viewBox="0 0 39 35" fill="none" xmlns="http://www.w3.org/2000/svg">
<g clip-path="url(#clip0_8_64)">
<path d="M19.3876 15.3161C18.9396 15.3187 18.5024 15.454 18.1313 15.7048C17.7601 15.9557 17.4715 16.3108 17.3019 16.7254C17.1323 17.1401 17.0893 17.5957 17.1784 18.0347C17.2674 18.4738 17.4845 18.8766 17.8022 19.1924C18.1199 19.5083 18.524 19.7229 18.9636 19.8093C19.4032 19.8957 19.8585 19.85 20.2721 19.678C20.6857 19.5059 21.0391 19.2152 21.2877 18.8426C21.5364 18.4699 21.669 18.0319 21.669 17.584C21.6672 16.9807 21.4258 16.4029 20.9979 15.9775C20.5701 15.5522 19.9908 15.3143 19.3876 15.3161V15.3161ZM12.0447 15.3161C11.5967 15.3187 11.1596 15.454 10.7884 15.7048C10.4172 15.9557 10.1286 16.3108 9.95904 16.7254C9.78945 17.1401 9.74646 17.5957 9.8355 18.0347C9.92453 18.4738 10.1416 18.8766 10.4593 19.1924C10.777 19.5083 11.1812 19.7229 11.6207 19.8093C12.0603 19.8957 12.5156 19.85 12.9292 19.678C13.3429 19.5059 13.6963 19.2152 13.9449 18.8426C14.1935 18.4699 14.3262 18.0319 14.3261 17.584C14.3243 16.9807 14.083 16.4029 13.6552 15.9776C13.2274 15.5523 12.6482 15.3144 12.045 15.3161H12.0447ZM26.732 15.3161C26.284 15.3187 25.8468 15.454 25.4757 15.7048C25.1045 15.9557 24.8159 16.3108 24.6463 16.7254C24.4767 17.1401 24.4337 17.5957 24.5228 18.0347C24.6118 18.4738 24.8289 18.8766 25.1466 19.1924C25.4643 19.5083 25.8684 19.7229 26.308 19.8093C26.7476 19.8957 27.2029 19.85 27.6165 19.678C28.0301 19.5059 28.3835 19.2152 28.6321 18.8426C28.8807 18.4699 29.0134 18.0319 29.0134 17.584C29.0125 17.2852 28.9528 16.9896 28.8377 16.714C28.7225 16.4384 28.5542 16.1881 28.3424 15.9775C28.1305 15.7669 27.8793 15.6001 27.603 15.4866C27.3266 15.3731 27.0307 15.3152 26.732 15.3161V15.3161ZM36.9573 11.6384C35.9245 10.0314 34.4769 8.60883 32.6572 7.40898C29.1413 5.09429 24.5216 3.81898 19.649 3.81898C18.0434 3.81713 16.4408 3.95857 14.8603 4.2416C13.8728 3.29202 12.7664 2.4744 11.5688 1.80918C7.13093 -0.406774 3.22017 0.418326 1.24407 1.13034C1.09438 1.18327 0.960331 1.27286 0.854186 1.39095C0.748042 1.50903 0.673184 1.65183 0.636452 1.8063C0.599721 1.96077 0.602288 2.12198 0.643919 2.2752C0.685551 2.42843 0.764918 2.56877 0.874769 2.68341C2.26835 4.12446 4.57393 6.97266 4.00737 9.56224C1.80405 11.816 0.609375 14.5335 0.609375 17.363C0.609375 20.2464 1.80405 22.9639 4.00737 25.2176C4.57419 27.8075 2.26862 30.6569 0.875035 32.0978C0.765387 32.2124 0.686192 32.3527 0.644679 32.5058C0.603165 32.6588 0.600656 32.8199 0.63738 32.9742C0.674103 33.1285 0.74889 33.2711 0.854914 33.3891C0.960937 33.5071 1.09482 33.5966 1.24434 33.6495C3.22043 34.3615 7.1312 35.1884 11.5705 32.9714C12.7681 32.3061 13.8744 31.4884 14.862 30.5389C16.4424 30.822 18.0449 30.9636 19.6504 30.9618C24.5244 30.9618 29.144 29.6881 32.6587 27.3735C34.4783 26.1735 35.9259 24.7524 36.9586 23.144C38.1093 21.3541 38.6918 19.4266 38.6918 17.4183C38.6903 15.356 38.1079 13.43 36.9573 11.6387V11.6384ZM19.4501 27.6218C17.4431 27.6277 15.4439 27.3707 13.5036 26.8572L12.1654 28.1465C11.4227 28.8591 10.5932 29.4752 9.69645 29.9804C8.60517 30.5269 7.42049 30.8623 6.20471 30.969C6.27007 30.8512 6.32977 30.7321 6.39365 30.6129C7.73472 28.1451 8.09649 25.9273 7.47896 23.9596C5.28561 22.2336 3.97021 20.0239 3.97021 17.6173C3.97021 12.0927 10.9012 7.61387 19.4501 7.61387C27.9991 7.61387 34.9315 12.0929 34.9315 17.6173C34.9315 23.1426 28.0005 27.6218 19.4501 27.6218Z" fill="#F94144"/>
</g>
<defs>
<clipPath id="clip0_8_64">
<rect width="38.2933" height="34.0385" fill="white" transform="translate(0.507812 0.371094)"/>
</clipPath>
</defs>
</svg>
