<svg width="147" height="37" viewBox="0 0 147 37" fill="none" xmlns="http://www.w3.org/2000/svg">
<path d="M0.800688 36H27.9231V27.0083H12.3965V1.60558H0.800688V36ZM48.6788 36.7862C59.8815 36.7862 68.0871 29.2194 68.0871 18.8028C68.0871 8.3862 59.8815 0.819425 48.6788 0.819425C37.476 0.819425 29.2705 8.3862 29.2705 18.8028C29.2705 29.2194 37.476 36.7862 48.6788 36.7862ZM48.6788 27.4014C44.4041 27.4014 40.9646 24.1585 40.9646 18.8028C40.9646 13.4471 44.4041 10.2042 48.6788 10.2042C52.9535 10.2042 56.393 13.4471 56.393 18.8028C56.393 24.1585 52.9535 27.4014 48.6788 27.4014Z" fill="white"/>
<path d="M98.4847 29.809C96.0279 31.3813 93.3255 32.0201 90.4265 32.0201C82.5158 32.0201 76.767 26.3696 76.767 18.8028C76.767 11.1377 82.5158 5.58551 90.4757 5.58551C94.3573 5.58551 97.6002 6.81388 100.45 9.56543L103.496 6.51907C100.352 3.0305 95.7331 1.2125 90.2791 1.2125C79.6169 1.2125 71.8536 8.63187 71.8536 18.8028C71.8536 28.9737 79.6169 36.3931 90.1809 36.3931C94.9961 36.3931 99.7622 34.919 103.202 32.0201V18.6063H98.4847V29.809ZM128.136 36.3931C138.601 36.3931 146.365 28.9246 146.365 18.8028C146.365 8.681 138.601 1.2125 128.136 1.2125C117.572 1.2125 109.808 8.73014 109.808 18.8028C109.808 28.8754 117.572 36.3931 128.136 36.3931ZM128.136 32.0201C120.421 32.0201 114.722 26.4187 114.722 18.8028C114.722 11.1869 120.421 5.58551 128.136 5.58551C135.752 5.58551 141.451 11.1869 141.451 18.8028C141.451 26.4187 135.752 32.0201 128.136 32.0201Z" fill="#F94144"/>
</svg>
