<svg width="38" height="43" viewBox="0 0 38 43" fill="none" xmlns="http://www.w3.org/2000/svg">
<g clip-path="url(#clip0_8_98)">
<path d="M37.2668 27.9501V3.99287C37.2668 1.78764 35.4783 0 33.2739 0H7.98575C3.57528 0 0 3.57528 0 7.98575V34.6049C0 39.0154 3.57528 42.5906 7.98575 42.5906H34.6049C36.0748 42.5906 37.2668 41.3986 37.2668 40.0036C37.2668 39.0287 36.7172 38.2135 35.9359 37.7493V30.9814C36.7511 30.1795 37.2668 29.1313 37.2668 27.9501ZM11.9038 10.6477H27.8752C28.6821 10.6477 29.2811 11.2466 29.2811 11.9786C29.2811 12.7106 28.6821 13.3096 27.9501 13.3096H11.9038C11.2466 13.3096 10.6477 12.7106 10.6477 11.9786C10.6477 11.2466 11.2466 10.6477 11.9038 10.6477ZM11.9038 15.9715H27.8752C28.6821 15.9715 29.2811 16.5704 29.2811 17.3024C29.2811 18.0345 28.6821 18.6334 27.9501 18.6334H11.9038C11.2466 18.6334 10.6477 18.0345 10.6477 17.3024C10.6477 16.5704 11.2466 15.9715 11.9038 15.9715ZM31.943 37.2668H7.98575C6.51587 37.2668 5.32383 36.0748 5.32383 34.6049C5.32383 33.135 6.51587 31.943 7.98575 31.943H31.943V37.2668Z" fill="#F94144"/>
</g>
<defs>
<clipPath id="clip0_8_98">
<rect width="37.2668" height="42.5906" fill="white"/>
</clipPath>
</defs>
</svg>
