<svg width="44" height="44" viewBox="0 0 44 44" fill="none" xmlns="http://www.w3.org/2000/svg">
<g clip-path="url(#clip0_8_58)">
<path d="M13.2119 32.4731L10.605 29.7902C9.88786 29.149 9.63476 28.1028 9.87943 27.1495C10.1325 26.3986 10.47 25.42 10.9509 24.2979H2.02481C1.29757 24.2979 0.625494 23.9098 0.265414 23.277C-0.0947513 22.6443 -0.0879175 21.8681 0.283215 21.2438L4.71023 13.7773C5.80363 11.9296 7.78965 10.7231 9.93849 10.7231H16.8735C17.076 10.4616 17.2785 10.1494 17.4809 9.84572C24.3906 -0.343339 34.6835 -0.686883 40.8254 0.445075C41.8125 0.625537 42.5718 1.38619 42.749 2.36739C43.8795 8.51272 43.5421 18.8056 33.3505 25.7152C33.0552 25.9177 32.6587 26.1202 32.3971 26.2468V33.2577C32.3971 35.4091 31.2666 37.3917 29.4189 38.4885L21.9524 42.9093C21.3281 43.2806 20.5519 43.289 19.9192 42.9347C19.2864 42.5719 18.8983 41.8969 18.8983 41.1714V32.1272C17.7087 32.5321 16.671 32.8781 15.8864 33.1312C14.9415 33.4349 13.9122 33.1733 13.2119 32.4731ZM32.3971 14.0978C34.2616 14.0978 35.7718 12.6636 35.7718 10.7231C35.7718 8.93455 34.2616 7.34845 32.3971 7.34845C30.5326 7.34845 29.0224 8.93455 29.0224 10.7231C29.0224 12.6636 30.5326 14.0978 32.3971 14.0978Z" fill="white"/>
</g>
<defs>
<clipPath id="clip0_8_58">
<rect width="43.1962" height="43.1962" fill="white"/>
</clipPath>
</defs>
</svg>
