<?xml version="1.0"?>
<svg xmlns="http://www.w3.org/2000/svg" xmlns:xlink="http://www.w3.org/1999/xlink" xmlns:svgjs="http://svgjs.com/svgjs" version="1.1" width="512" height="512" x="0" y="0" viewBox="0 0 300 300" style="enable-background:new 0 0 512 512" xml:space="preserve" class=""><g><g xmlns="http://www.w3.org/2000/svg"><path d="m74 91.999c6.617 0 12-5.383 12-12s-5.383-12-12-12-12 5.383-12 12 5.383 12 12 12zm0-16c2.205 0 4 1.795 4 4s-1.795 4-4 4-4-1.795-4-4 1.795-4 4-4z" fill="#ffffff" data-original="#000000" class=""/><path d="m248.213 77.151c2.362 0 4.277-1.915 4.277-4.276 0-2.362-1.915-4.277-4.277-4.277s-4.276 1.915-4.276 4.277c-.001 2.361 1.914 4.276 4.276 4.276z" fill="#ffffff" data-original="#000000" class=""/><path d="m68.213 200.598c-2.362 0-4.276 1.915-4.276 4.277s1.915 4.276 4.276 4.276 4.277-1.915 4.277-4.276c-.001-2.363-1.916-4.277-4.277-4.277z" fill="#ffffff" data-original="#000000" class=""/><path d="m170 115.999v-8h8c2.209 0 4-1.791 4-4s-1.791-4-4-4h-8v-4h8c2.209 0 4-1.791 4-4s-1.791-4-4-4h-12c-2.209 0-4 1.791-4 4v24c0 2.209 1.791 4 4 4s4-1.791 4-4z" fill="#ffffff" data-original="#000000" class=""/><path d="m154 87.999c-2.209 0-4 1.791-4 4v6.344l-9.172-9.172c-1.146-1.148-2.865-1.488-4.359-.867-1.494.619-2.469 2.078-2.469 3.695v24c0 2.209 1.791 4 4 4s4-1.791 4-4v-14.344l8 8v6.344c0 2.209 1.791 4 4 4s4-1.791 4-4v-24c0-2.209-1.791-4-4-4z" fill="#ffffff" data-original="#000000" class=""/><path d="m190 95.999h4v20c0 2.209 1.791 4 4 4s4-1.791 4-4v-20h4c2.209 0 4-1.791 4-4s-1.791-4-4-4h-16c-2.209 0-4 1.791-4 4s1.791 4 4 4z" fill="#ffffff" data-original="#000000" class=""/><path d="m271.053 244.14-44-12c-.6-.168-1.232-.189-1.838-.062l-59.297 11.859-69.832-11.025c-1.209-.192-2.086-1.22-2.086-2.442 0-1.363 1.107-2.471 2.471-2.471h85.529c.51 0 1.014-.098 1.486-.285l20-8c2.051-.822 3.049-3.148 2.229-5.201-.822-2.049-3.145-3.043-5.201-2.229l-19.283 7.715h-39.231v-.613c0-6.279 5.107-11.387 11.387-11.387h24.613c1.615 0 3.084-.998 3.703-2.49.293-.695 7.381-17.031 31.73-13.551 11.525 1.646 17.258 3.939 22.801 6.158 7.564 3.025 14.709 5.883 33.766 5.883 2.209 0 4-1.791 4-4s-1.791-4-4-4c-17.516 0-23.67-2.461-30.795-5.312-5.701-2.279-12.164-4.865-24.639-6.646-24.465-3.494-35.457 10.139-38.959 15.959h-22.221c-10.689 0-19.387 8.697-19.387 19.387v.613h-37.528c-5.773 0-10.471 4.697-10.471 10.471 0 5.182 3.715 9.533 8.838 10.344l70.539 11.137c.461.072.941.064 1.408-.029l59.074-11.814 43.088 11.752c.354.096.707.143 1.055.143 1.76 0 3.371-1.17 3.857-2.949.58-2.134-.675-4.333-2.806-4.915z" fill="#ffffff" data-original="#000000" class=""/><path d="m134.623 179.95 70.541-11.137c5.121-.811 8.836-5.162 8.836-10.344 0-5.444-4.191-9.879-9.508-10.373 13.372-10.444 21.508-26.557 21.508-44.097 0-30.879-25.121-56-56-56s-56 25.121-56 56c0 5.006.685 9.945 1.979 14.71-6.276-4.775-16.018-8.738-30.545-6.669-12.475 1.781-18.938 4.367-24.639 6.646-7.125 2.852-13.279 5.312-30.795 5.312-2.209 0-4 1.791-4 4s1.791 4 4 4c19.057 0 26.201-2.857 33.766-5.883 5.543-2.219 11.275-4.512 22.801-6.158 24.371-3.486 31.439 12.854 31.719 13.527.609 1.518 2.08 2.514 3.715 2.514h24.613c6.279 0 11.387 5.107 11.387 11.387v.613h-39.23l-19.283-7.715c-2.061-.818-4.379.18-5.201 2.229-.82 2.053.178 4.379 2.229 5.201l20 8c.473.188.977.285 1.486.285h85.529c1.363 0 2.471 1.107 2.471 2.471 0 1.223-.877 2.25-2.084 2.441l-69.834 11.025-59.297-11.859c-.615-.129-1.242-.104-1.838.062l-44 12c-2.131.582-3.387 2.781-2.807 4.912.486 1.779 2.098 2.949 3.857 2.949.348 0 .703-.047 1.055-.143l43.088-11.752 59.074 11.814c.466.095.942.106 1.407.032zm11.99-51.951h-18.158c-4.211-7.274-6.455-15.527-6.455-24 0-26.467 21.533-48 48-48s48 21.533 48 48c0 19.162-11.301 36.355-28.828 44h-23.172v-.613c0-10.69-8.697-19.387-19.387-19.387z" fill="#ffffff" data-original="#000000" class=""/><path d="m242 147.999h4v4c0 2.209 1.791 4 4 4s4-1.791 4-4v-4h4c2.209 0 4-1.791 4-4s-1.791-4-4-4h-4v-4c0-2.209-1.791-4-4-4s-4 1.791-4 4v4h-4c-2.209 0-4 1.791-4 4s1.791 4 4 4z" fill="#ffffff" data-original="#000000" class=""/></g></g></svg>
