<?xml version="1.0"?>
<svg xmlns="http://www.w3.org/2000/svg" xmlns:xlink="http://www.w3.org/1999/xlink" xmlns:svgjs="http://svgjs.com/svgjs" version="1.1" width="512" height="512" x="0" y="0" viewBox="0 0 50 50" style="enable-background:new 0 0 512 512" xml:space="preserve" class=""><g><g xmlns="http://www.w3.org/2000/svg"><path d="m25.435 1.005c-13.26-.24-24.19 10.31-24.43 23.56s10.31 24.19 23.56 24.43 24.19-10.31 24.43-23.57c.24-13.25-10.31-24.19-23.56-24.42zm-.79 43.49c-10.75-.2-19.34-9.1-19.14-19.85.19-10.75 9.09-19.34 19.84-19.15 10.76.2 19.34 9.1 19.15 19.85s-9.1 19.34-19.85 19.15z" fill="#ffffff" data-original="#000000" class=""/><path d="m25.317 7.499c-9.65-.17-17.64 7.54-17.81 17.19-.18 9.64 7.53 17.63 17.18 17.81 9.65.17 17.64-7.54 17.81-17.18.17-9.65-7.53-17.64-17.18-17.82zm-.315 4.988 5.561 9.921-5.075-2.824c-.303-.168-.67-.168-.973 0l-5.075 2.824zm0 25.023-5.562-9.921 5.075 2.824c.151.084.319.126.486.126s.335-.042.486-.126l5.075-2.824zm0-9.116-6.104-3.396 6.104-3.396 6.103 3.396z" fill="#ffffff" data-original="#000000" class=""/></g></g></svg>
