<svg width="47" height="38" viewBox="0 0 47 38" fill="none" xmlns="http://www.w3.org/2000/svg">
<path d="M9.48078 35.625H9.4V28.5H25.85L18.0069 33.2574C15.4512 34.7418 12.5284 35.625 9.48078 35.625ZM25.85 9.5H9.4V2.375H9.48078C12.5284 2.375 15.4512 3.19363 18.0069 4.74406L25.85 9.5ZM7.6375 9.5C9.56156 9.5 11.2653 10.4352 12.3375 11.875H33.4875C38.5767 11.875 43.4016 13.5598 46.6475 17.9313C47.1175 18.5621 47.1175 19.4379 46.6475 20.0688C43.4016 24.4402 38.5767 26.125 33.4875 26.125H12.3375C11.2653 27.5648 9.56156 28.5 7.6375 28.5H7.05V35.625H5.875C3.92817 35.625 2.35 34.0293 2.35 32.0625V28.5H2.9375C1.31527 28.5 0 27.1715 0 25.5312V12.4688C0 10.8285 1.3138 9.5 2.93456 9.5H2.35V5.9375C2.35 3.96996 3.92817 2.375 5.875 2.375H7.05V9.5H7.6375ZM34.9856 15.4375C34.7433 15.4375 34.6625 15.5191 34.6625 15.7641V22.2359C34.6625 22.4141 34.7433 22.5625 34.9856 22.5625C36.4323 22.5625 37.6 21.3824 37.6 19.9203V18.0797C37.6 16.6176 36.4323 15.4375 34.9856 15.4375Z" fill="white"/>
</svg>
